<svg id="Layer_1" data-name="Layer 1" xmlns="http://www.w3.org/2000/svg" viewBox="0 0 100 100"><defs><style>.cls-3{fill:#58b049;}.cls-4{fill:#fff;}</style></defs><g id="bg-2" data-name="bg"><path class="cls-3" d="M0,13V87a13,13,0,0,0,13,13H87a13,13,0,0,0,13-13V13A13,13,0,0,0,87,0H13A13,13,0,0,0,0,13Z"/></g><path class="cls-4" d="M9.32,42.7h5.74s5.22,7.88,5.37,8.1.17,0,.17,0a13.79,13.79,0,0,1-.5-3.72V42.7h5.72V57.3H20.11S15,49.84,14.85,49.63s-.17,0-.17,0A9.76,9.76,0,0,1,15,52.56V57.3H9.32V42.7Z"/><path class="cls-4" d="M34.85,52l.78-3a13.19,13.19,0,0,0,.28-1.46.12.12,0,0,1,.24,0,14.18,14.18,0,0,0,.3,1.44l.8,3h-2.4Zm-1.07,3.47h4.52l.55,1.82h6.33L39.31,42.7H32.69L27,57.3H33.3Z"/><path class="cls-4" d="M60.26,42.7,53.88,57.3H48.81L42.44,42.7h6.25l2.18,6.64a15.66,15.66,0,0,1,.41,2.29.11.11,0,0,0,.21,0,15.62,15.62,0,0,1,.42-2.29L54,42.7h6.25Z"/><path class="cls-4" d="M61.51,42.7H72.58v4h-5v1.39h4.61v3.8H67.53v1.43h5.22v4H61.51V42.7Z"/><path class="cls-4" d="M81,46.69h.46c1,0,1.92.13,1.92,1.26s-1,1.22-2,1.22H81V46.69ZM75.19,57.3H81V52.61s0-.17.15,0l2.58,4.69h6.9L87.1,52.56a4.47,4.47,0,0,0-1-.87c-.12-.08,0-.12,0-.12,2.23-.66,3.19-1.59,3.19-3.8,0-3.68-3.15-5.07-6.86-5.07H75.19V57.3Z"/></svg>